<?xml version="1.0" encoding="UTF-8" standalone="no"?>
<!DOCTYPE svg PUBLIC "-//W3C//DTD SVG 1.1//EN" "http://www.w3.org/Graphics/SVG/1.1/DTD/svg11.dtd">
<svg width="100%" height="100%" viewBox="0 0 200 200" version="1.1" xmlns="http://www.w3.org/2000/svg" xmlns:xlink="http://www.w3.org/1999/xlink" xml:space="preserve" xmlns:serif="http://www.serif.com/" style="fill-rule:evenodd;clip-rule:evenodd;stroke-linejoin:round;stroke-miterlimit:2;">
    <g id="图层-1" serif:id="图层 1">
        <g transform="matrix(1,0,0,1,65.8594,168.626)">
            <path d="M0,-92.107L-0.379,-92.107L-0.379,-44.796C-0.379,-40.598 3.055,-37.164 7.252,-37.164L13.685,-37.164L13.685,-7.628C13.686,-3.415 17.103,0 21.317,0C25.531,0 28.947,-3.415 28.949,-7.628L28.949,-32.606L28.949,-37.164L39.362,-37.164L39.362,-7.628C39.364,-3.415 42.78,0 46.995,0C51.209,0 54.625,-3.415 54.627,-7.628L54.627,-32.606L54.627,-37.164L61.059,-37.164C65.257,-37.164 68.69,-40.598 68.69,-44.796L68.69,-92.107L68.566,-92.107L0,-92.107Z" style="fill:rgb(208,38,52);fill-rule:nonzero;"/>
        </g>
        <g transform="matrix(1,0,0,1,55.1133,120.502)">
            <path d="M0,-45.316C-4.214,-45.316 -7.63,-41.9 -7.632,-37.687L-7.632,-24.709L-7.632,-30.607L-7.632,-7.629C-7.63,-3.416 -4.214,0 0,0C4.214,0 7.63,-3.416 7.632,-7.629L7.632,-30.607L7.632,-24.709L7.632,-37.687C7.63,-41.9 4.214,-45.316 0,-45.316" style="fill:rgb(208,38,52);fill-rule:nonzero;"/>
        </g>
        <g transform="matrix(1,0,0,1,152.549,112.874)">
            <path d="M0,-30.058C-0.001,-34.272 -3.418,-37.687 -7.632,-37.687C-11.846,-37.687 -15.262,-34.272 -15.264,-30.058L-15.264,-17.08L-15.264,-22.978L-15.264,-0.001C-15.262,4.213 -11.846,7.629 -7.632,7.629C-3.418,7.629 -0.001,4.213 0,-0.001L0,-22.978L0,-17.08L0,-30.058Z" style="fill:rgb(208,38,52);fill-rule:nonzero;"/>
        </g>
        <g transform="matrix(1,0,0,1,65.8594,168.626)">
            <path d="M0,-92.107L-0.379,-92.107L-0.379,-44.796C-0.379,-40.598 3.055,-37.164 7.252,-37.164L13.685,-37.164L13.685,-7.628C13.686,-3.415 17.103,0 21.317,0C25.531,0 28.947,-3.415 28.949,-7.628L28.949,-32.606L28.949,-37.164L39.362,-37.164L39.362,-7.628C39.364,-3.415 42.78,0 46.995,0C51.209,0 54.625,-3.415 54.627,-7.628L54.627,-32.606L54.627,-37.164L61.059,-37.164C65.257,-37.164 68.69,-40.598 68.69,-44.796L68.69,-92.107L68.566,-92.107L0,-92.107Z" style="fill:rgb(208,38,52);fill-rule:nonzero;"/>
        </g>
        <g transform="matrix(1,0,0,1,84.3057,60.7494)">
            <path d="M0,-5.6C1.792,-5.6 3.244,-4.147 3.244,-2.356C3.244,-0.565 1.792,0.887 0,0.887C-1.792,0.887 -3.244,-0.565 -3.244,-2.356C-3.244,-4.147 -1.792,-5.6 0,-5.6M31.419,-5.6C33.21,-5.6 34.662,-4.147 34.662,-2.356C34.662,-0.565 33.21,0.887 31.419,0.887C29.628,0.887 28.176,-0.565 28.176,-2.356C28.176,-4.147 29.628,-5.6 31.419,-5.6M50.181,13.099L50.181,9.42C50.081,8.376 49.924,7.347 49.71,6.336C47.82,-2.614 41.576,-10.195 33.012,-14.598L30.764,-15.656C26.229,-17.605 21.146,-18.699 15.773,-18.699C10.36,-18.699 5.239,-17.589 0.679,-15.613L-1.564,-14.546C-9.729,-10.317 -15.769,-3.195 -17.911,5.245C-18.467,7.435 -18.762,9.713 -18.762,12.052C-18.762,12.403 -18.753,12.751 -18.74,13.099L50.181,13.099Z" style="fill:rgb(208,38,52);fill-rule:nonzero;"/>
        </g>
        <g transform="matrix(1,0,0,1,0,122.285)">
            <rect x="79.447" y="31.373" width="15.444" height="14.969" style="fill:rgb(35,31,32);"/>
        </g>
        <g transform="matrix(1,0,0,1,94.8911,158.914)">
            <path d="M0,9.713C0,4.349 -6.1,0 -13.625,0C-21.15,0 -27.25,4.349 -27.25,9.713" style="fill:rgb(35,31,32);fill-rule:nonzero;"/>
        </g>
        <g transform="matrix(1,0,0,1,92.8809,34.0523)">
            <path d="M0,8.684L-3.269,-2.076C-3.468,-2.732 -4.161,-3.102 -4.816,-2.902C-5.471,-2.704 -5.841,-2.011 -5.642,-1.356L-2.412,9.279C-11.258,11.786 4.863,7.662 0,8.684" style="fill:rgb(208,38,52);fill-rule:nonzero;"/>
        </g>
        <g transform="matrix(1,0,0,1,109.129,33.4575)">
            <path d="M0,9.874L3.23,-0.761C3.43,-1.416 3.06,-2.109 2.404,-2.308C1.749,-2.507 1.056,-2.137 0.857,-1.481L-2.412,9.279C-7.275,8.256 8.846,12.381 0,9.874" style="fill:rgb(208,38,52);fill-rule:nonzero;"/>
        </g>
        <g transform="matrix(1,0,0,1,55.1133,120.502)">
            <path d="M0,-45.316C-4.214,-45.316 -7.63,-41.9 -7.632,-37.687L-7.632,-24.709L-7.632,-30.607L-7.632,-7.629C-7.63,-3.416 -4.214,0 0,0C4.214,0 7.63,-3.416 7.632,-7.629L7.632,-30.607L7.632,-24.709L7.632,-37.687C7.63,-41.9 4.214,-45.316 0,-45.316" style="fill:rgb(208,38,52);fill-rule:nonzero;"/>
        </g>
        <g transform="matrix(1,0,0,1,152.549,112.874)">
            <path d="M0,-30.058C-0.001,-34.272 -3.418,-37.687 -7.632,-37.687C-11.846,-37.687 -15.262,-34.272 -15.264,-30.058L-15.264,-17.08L-15.264,-22.978L-15.264,-0.001C-15.262,4.213 -11.846,7.629 -7.632,7.629C-3.418,7.629 -0.001,4.213 0,-0.001L0,-22.978L0,-17.08L0,-30.058Z" style="fill:rgb(208,38,52);fill-rule:nonzero;"/>
        </g>
        <g transform="matrix(1,0,0,1,55.1133,95.7935)">
            <path d="M0,-20.607C-4.214,-20.607 -7.63,-17.191 -7.632,-12.978L-7.632,0L7.632,0L7.632,-12.978C7.63,-17.191 4.214,-20.607 0,-20.607" style="fill-rule:nonzero;"/>
        </g>
        <g transform="matrix(1,0,0,1,144.917,95.7935)">
            <path d="M0,-20.607C-4.214,-20.607 -7.631,-17.191 -7.632,-12.978L-7.632,0L7.632,0L7.632,-12.978C7.631,-17.191 4.214,-20.607 0,-20.607" style="fill-rule:nonzero;"/>
        </g>
        <g transform="matrix(-1,0,0,1,110.226,18.962)">
            <rect x="47.465" y="88.644" width="15.296" height="3.75" style="fill:rgb(35,31,32);"/>
        </g>
        <g transform="matrix(-1,0,0,1,289.834,18.962)">
            <rect x="137.269" y="88.644" width="15.296" height="3.75" style="fill:rgb(35,31,32);"/>
        </g>
        <g transform="matrix(-1,0,0,1,174.384,80.473)">
            <rect x="79.544" y="56.685" width="15.296" height="6.157" style="fill:rgb(35,31,32);"/>
        </g>
        <g transform="matrix(-1,0,0,1,174.384,70.566)">
            <rect x="79.544" y="62.842" width="15.296" height="3.75" style="fill:rgb(35,31,32);"/>
        </g>
        <g transform="matrix(1,0,0,1,68.1733,126.375)">
            <path d="M0,-46.615L-0.068,-49.805L-2.314,-49.855L-2.693,-49.855L-2.693,-2.544C-2.693,-0.23 -1.639,1.838 0,3.24L0,-46.615Z" style="fill-rule:nonzero;"/>
        </g>
        <g transform="matrix(1,0,0,1,134.426,168.626)">
            <path d="M0,-92.107L-34.864,-92.107L-34.864,-37.164L-29.204,-37.164L-29.204,-7.628C-29.202,-3.415 -25.786,0 -21.571,0C-17.357,0 -13.941,-3.415 -13.939,-7.628L-13.939,-32.606L-13.939,-37.164L-7.508,-37.164C-3.31,-37.164 0.124,-40.598 0.124,-44.795L0.124,-92.107L0,-92.107Z" style="fill:rgb(208,38,52);fill-rule:nonzero;"/>
        </g>
        <g transform="matrix(1,0,0,1,115.757,54.2617)">
            <path d="M0,7.375C-1.792,7.375 -3.244,5.923 -3.244,4.132C-3.244,2.34 -1.792,0.888 0,0.888C1.791,0.888 3.243,2.34 3.243,4.132C3.243,5.923 1.791,7.375 0,7.375M18.291,12.823C16.401,3.874 10.156,-3.708 1.592,-8.11L-0.655,-9.168C-5.189,-11.117 -10.274,-12.211 -15.646,-12.211C-15.82,-12.211 -15.991,-12.2 -16.164,-12.198L-16.164,19.586L18.762,19.586L18.762,15.908C18.662,14.864 18.504,13.835 18.291,12.823" style="fill:rgb(208,38,52);fill-rule:nonzero;"/>
        </g>
        <g transform="matrix(1,0,0,1,91.1387,70.3812)">
            <path d="M0,-23.097L0.111,-23.208C-0.877,-22.901 -1.841,-22.547 -2.773,-22.143L-4.512,-21.316C-10.84,-18.038 -15.521,-12.518 -17.182,-5.977C-17.613,-4.28 -17.841,-2.514 -17.841,-0.701C-17.841,-0.429 -17.834,-0.159 -17.824,0.111L0,0.111L9.713,-13.384L0,-23.097Z" style="fill-rule:nonzero;"/>
        </g>
        <g transform="matrix(1,0,0,1,126.368,53.072)">
            <path d="M0,12.178C-1.465,5.241 -6.305,-0.635 -12.943,-4.047L-14.685,-4.867C-14.993,-5 -15.308,-5.12 -15.622,-5.242L-24.789,3.925L-15.077,17.42L0.365,17.42L0.365,14.568C0.287,13.759 0.165,12.962 0,12.178" style="fill-rule:nonzero;"/>
        </g>
        <g transform="matrix(0,-1,-1,0,86.6318,56.4497)">
            <path d="M-3.5,-3.5C-5.433,-3.5 -7,-1.933 -7,0C-7,1.933 -5.433,3.5 -3.5,3.5C-1.567,3.5 0,1.933 0,0C0,-1.933 -1.567,-3.5 -3.5,-3.5" style="fill:white;fill-rule:nonzero;"/>
        </g>
        <g transform="matrix(-1,0,0,1,114.992,63.4497)">
            <path d="M0,-7C-1.934,-7 -3.5,-5.433 -3.5,-3.5C-3.5,-1.567 -1.934,0 0,0C1.933,0 3.5,-1.567 3.5,-3.5C3.5,-5.433 1.933,-7 0,-7" style="fill:white;fill-rule:nonzero;"/>
        </g>
        <g transform="matrix(-1,0,0,1,200.03,25.984)">
            <rect x="65.48" y="83.758" width="69.07" height="6.5" style="fill:rgb(113,53,22);"/>
        </g>
        <g transform="matrix(-1,0,0,1,144.929,26.317)">
            <rect x="69.506" y="81.758" width="5.917" height="10.167" style="fill:rgb(113,53,22);"/>
        </g>
        <g transform="matrix(-1,0,0,1,161.597,26.317)">
            <rect x="77.84" y="81.758" width="5.917" height="10.167" style="fill:rgb(113,53,22);"/>
        </g>
        <g transform="matrix(-1,0,0,1,236.931,26.317)">
            <rect x="115.507" y="81.758" width="5.917" height="10.167" style="fill:rgb(113,53,22);"/>
        </g>
        <g transform="matrix(-1,0,0,1,253.597,26.317)">
            <rect x="123.84" y="81.758" width="5.917" height="10.167" style="fill:rgb(113,53,22);"/>
        </g>
        <g transform="matrix(0,-1,-1,0,99.6313,104.929)">
            <path d="M-9.042,-9.042C-14.036,-9.042 -18.084,-4.994 -18.084,0C-18.084,4.994 -14.036,9.042 -9.042,9.042C-4.048,9.042 0,4.994 0,0C0,-4.994 -4.048,-9.042 -9.042,-9.042" style="fill:rgb(150,27,38);fill-rule:nonzero;"/>
        </g>
        <g transform="matrix(1,0,0,1,98.8193,107.756)">
            <path d="M0,12.867C-3.553,12.867 -6.434,9.987 -6.434,6.433C-6.434,2.881 -3.553,0 0,0L0,12.867Z" style="fill-rule:nonzero;"/>
        </g>
        <g transform="matrix(1,0,0,1,100.508,120.623)">
            <path d="M0,-12.904C3.564,-12.904 6.453,-10.015 6.453,-6.452C6.453,-2.888 3.564,0 0,0L0,-12.904Z" style="fill-rule:nonzero;"/>
        </g>
        <g transform="matrix(0,-1,-1,0,95.8477,111.94)">
            <path d="M-1.687,-1.687C-2.62,-1.687 -3.374,-0.931 -3.374,0C-3.374,0.933 -2.62,1.687 -1.687,1.687C-0.755,1.687 0,0.933 0,0C0,-0.931 -0.755,-1.687 -1.687,-1.687" style="fill:white;fill-rule:nonzero;"/>
        </g>
        <g transform="matrix(0,-1,-1,0,103.913,111.94)">
            <path d="M-1.687,-1.687C-2.62,-1.687 -3.374,-0.931 -3.374,0C-3.374,0.932 -2.62,1.687 -1.687,1.687C-0.755,1.687 0,0.932 0,0C0,-0.931 -0.755,-1.687 -1.687,-1.687" style="fill:white;fill-rule:nonzero;"/>
        </g>
        <g transform="matrix(1,0,0,1,131.934,126.375)">
            <path d="M0,-46.615L0.067,-49.805L2.313,-49.855L2.693,-49.855L2.693,-2.544C2.693,-0.23 1.639,1.838 0,3.24L0,-46.615Z" style="fill-rule:nonzero;"/>
        </g>
        <g transform="matrix(-1,0,0,1,225.849,122.285)">
            <rect x="105.363" y="31.373" width="15.123" height="14.969" style="fill:rgb(35,31,32);"/>
        </g>
        <g transform="matrix(1,0,0,1,105.363,158.914)">
            <path d="M0,9.713C0,4.349 6.1,0 13.625,0C21.149,0 27.25,4.349 27.25,9.713" style="fill:rgb(35,31,32);fill-rule:nonzero;"/>
        </g>
        <g transform="matrix(-1,0,0,1,225.848,80.473)">
            <rect x="105.276" y="56.685" width="15.296" height="6.157" style="fill:rgb(35,31,32);"/>
        </g>
        <g transform="matrix(-1,0,0,1,225.848,70.566)">
            <rect x="105.276" y="62.842" width="15.296" height="3.75" style="fill:rgb(35,31,32);"/>
        </g>
        <g transform="matrix(1,0,0,1,65.542,54.6935)">
            <path d="M0,6.014L-3.83,3.091L-0.958,-0.67L-5.098,-3.83L-8.705,0.894L-13.211,-2.546L-11.679,-4.859L-15.818,-8.018L-22.548,0.798L-18.409,3.958L-16.287,2.096L-12.076,5.31L-15.682,10.035L-11.542,13.195L-8.671,9.434L-2.647,14.032C-2.12,11.256 -1.227,8.566 0,6.014" style="fill-rule:nonzero;"/>
        </g>
        <g transform="matrix(1,0,0,1,134.488,54.6935)">
            <path d="M0,6.014L3.83,3.091L0.959,-0.67L5.099,-3.83L8.704,0.894L13.211,-2.546L11.679,-4.859L15.818,-8.018L22.549,0.798L18.409,3.958L16.287,2.096L12.076,5.31L15.682,10.035L11.542,13.195L8.672,9.434L2.647,14.032C2.12,11.256 1.227,8.566 0,6.014" style="fill-rule:nonzero;"/>
        </g>
    </g>
</svg>
