<?xml version="1.0" encoding="UTF-8" standalone="no"?>
<!DOCTYPE svg PUBLIC "-//W3C//DTD SVG 1.1//EN" "http://www.w3.org/Graphics/SVG/1.1/DTD/svg11.dtd">
<svg width="100%" height="100%" viewBox="0 0 200 200" version="1.1" xmlns="http://www.w3.org/2000/svg" xmlns:xlink="http://www.w3.org/1999/xlink" xml:space="preserve" xmlns:serif="http://www.serif.com/" style="fill-rule:evenodd;clip-rule:evenodd;stroke-linejoin:round;stroke-miterlimit:2;">
    <g id="图层-1" serif:id="图层 1">
        <g transform="matrix(1,0,0,1,54.7793,121.691)">
            <path d="M0,-47.316C-4.214,-47.316 -7.63,-43.901 -7.632,-39.687L-7.632,-7.629C-7.63,-3.416 -4.214,0 0,0C4.214,0 7.63,-3.416 7.632,-7.629L7.632,-20.607L7.632,-26.71L7.632,-39.687C7.63,-43.901 4.214,-47.316 0,-47.316" style="fill:rgb(210,32,39);fill-rule:nonzero;"/>
        </g>
        <g transform="matrix(1,0,0,1,152.215,114.063)">
            <path d="M0,-32.059C-0.001,-36.273 -3.418,-39.688 -7.632,-39.688C-11.846,-39.688 -15.262,-36.273 -15.264,-32.059L-15.264,-0.001C-15.262,4.212 -11.846,7.629 -7.632,7.629C-3.418,7.629 -0.001,4.212 0,-0.001L0,-12.979L0,-19.081L0,-32.059Z" style="fill:rgb(210,32,39);fill-rule:nonzero;"/>
        </g>
        <g transform="matrix(1,0,0,1,65.5254,158.815)">
            <path d="M0,-83.108L-0.379,-83.108L-0.379,-32.797C-0.379,-28.599 3.055,-25.164 7.253,-25.164L13.685,-25.164L13.685,-7.629C13.687,-3.416 17.103,0 21.317,0C25.531,0 28.947,-3.416 28.949,-7.629L28.949,-20.608L28.949,-25.164L39.362,-25.164L39.362,-7.629C39.364,-3.416 42.781,0 46.995,0C51.209,0 54.625,-3.416 54.627,-7.629L54.627,-20.608L54.627,-25.164L61.059,-25.164C65.257,-25.164 68.691,-28.599 68.691,-32.797L68.691,-83.108L68.566,-83.108L0,-83.108Z" style="fill:rgb(210,32,39);fill-rule:nonzero;"/>
        </g>
        <g transform="matrix(1,0,0,1,134.153,33.6121)">
            <path d="M0,39.424L0,35.745C-0.101,34.701 -0.258,33.673 -0.472,32.661C-2.361,23.711 -8.605,16.13 -17.17,11.728L-11.901,2.008C-11.575,1.406 -11.799,0.653 -12.4,0.326C-13.003,0 -13.756,0.224 -14.082,0.826L-19.418,10.669C-23.952,8.72 -29.036,7.627 -34.409,7.627C-39.821,7.627 -44.943,8.736 -49.503,10.713L-54.862,0.826C-55.188,0.224 -55.941,0 -56.543,0.326C-57.146,0.653 -57.369,1.406 -57.042,2.008L-51.746,11.779C-59.91,16.008 -65.951,23.131 -68.093,31.57C-68.648,33.76 -68.943,36.038 -68.943,38.378C-68.943,38.728 -68.935,39.077 -68.921,39.424L0,39.424Z" style="fill:rgb(210,32,39);fill-rule:nonzero;"/>
        </g>
        <g transform="matrix(1,0,0,1,134.153,135.885)">
            <path d="M0,-37.248L0,-60.178L-9.669,-17.664C-10.792,-13.329 -14.704,-10.301 -19.183,-10.301L-49.213,-10.301C-53.949,-10.301 -58.087,-13.502 -59.275,-18.087L-69.007,-60.178L-69.007,-9.867C-69.007,-5.668 -65.573,-2.234 -61.375,-2.234L-54.943,-2.234L-54.943,15.301C-54.941,19.514 -51.525,22.93 -47.311,22.93C-43.097,22.93 -39.681,19.514 -39.679,15.301L-39.679,2.323L-39.679,-2.234L-29.266,-2.234L-29.266,15.301C-29.264,19.514 -25.847,22.93 -21.633,22.93C-17.419,22.93 -14.003,19.514 -14.001,15.301L-14.001,2.323L-14.001,-2.234L-7.569,-2.234C-3.371,-2.234 0.063,-5.668 0.063,-9.867L0.063,-60.178L0,-37.248Z" style="fill:rgb(54,92,169);fill-rule:nonzero;"/>
        </g>
        <g transform="matrix(-1,0,0,1,109.56,-7.587)">
            <rect x="47.148" y="91.408" width="15.264" height="24.771" style="fill:rgb(54,92,169);"/>
        </g>
        <g transform="matrix(-1,0,0,1,289.166,-7.587)">
            <rect x="136.951" y="91.408" width="15.264" height="24.771" style="fill:rgb(54,92,169);"/>
        </g>
        <g transform="matrix(1,0,0,1,79.3076,165.621)">
            <path d="M0,-19.384L0,-13.519C-6.796,-12.758 -12.082,-6.999 -12.082,0L15.137,0L15.137,-19.384L0,-19.384Z" style="fill:rgb(210,32,39);fill-rule:nonzero;"/>
        </g>
        <g transform="matrix(1,0,0,1,120.048,165.627)">
            <path d="M0,-19.396L0,-13.527C6.801,-12.766 12.089,-7.003 12.089,0L0,0L-15.146,0L-15.146,-19.396L0,-19.396Z" style="fill:rgb(210,32,39);fill-rule:nonzero;"/>
        </g>
        <g transform="matrix(1,0,0,1,110.869,64.0876)">
            <path d="M0,-11.237C0.003,-11.238 0.006,-11.239 0.01,-11.24C0.357,-11.334 0.809,-11.364 1.327,-11.369C1.345,-11.369 1.362,-11.37 1.38,-11.37C1.39,-11.37 1.399,-11.369 1.41,-11.369C3.986,-11.381 8.159,-10.839 9.864,-14.316C9.864,-14.316 9.468,-1.918 7.247,0.07C7.246,0.071 7.245,0.071 7.244,0.072C5.933,1.893 3.795,3.079 1.38,3.079C-2.61,3.079 -5.845,-0.155 -5.845,-4.145C-5.845,-7.663 -3.33,-10.592 0,-11.237" style="fill:rgb(35,31,32);fill-rule:nonzero;"/>
        </g>
        <g transform="matrix(-1,0,0,1,111.685,64.0588)">
            <path d="M0.001,-7.614C2.113,-7.614 3.834,-5.893 3.834,-3.78C3.834,-1.669 2.113,0 0.001,0C-2.111,0 -3.833,-1.669 -3.833,-3.78C-3.833,-5.893 -2.111,-7.614 0.001,-7.614" style="fill:white;fill-rule:nonzero;"/>
        </g>
        <g transform="matrix(1,0,0,1,88.5762,64.0876)">
            <path d="M0,-11.237C-0.003,-11.238 -0.006,-11.239 -0.01,-11.24C-0.357,-11.334 -0.809,-11.364 -1.327,-11.369C-1.345,-11.369 -1.362,-11.37 -1.38,-11.37C-1.39,-11.37 -1.4,-11.369 -1.41,-11.369C-3.987,-11.381 -8.16,-10.839 -9.864,-14.316C-9.864,-14.316 -9.469,-1.918 -7.248,0.07C-7.248,0.07 -7.246,0.071 -7.245,0.072C-5.933,1.893 -3.796,3.079 -1.38,3.079C2.61,3.079 5.845,-0.155 5.845,-4.145C5.845,-7.663 3.33,-10.592 0,-11.237" style="fill:rgb(35,31,32);fill-rule:nonzero;"/>
        </g>
        <g transform="matrix(-1,0,0,1,87.7617,64.0588)">
            <path d="M0.001,-7.614C-2.112,-7.614 -3.833,-5.893 -3.833,-3.78C-3.833,-1.669 -2.112,0 0.001,0C2.112,0 3.834,-1.669 3.834,-3.78C3.834,-5.893 2.112,-7.614 0.001,-7.614" style="fill:white;fill-rule:nonzero;"/>
        </g>
        <g transform="matrix(1,0,0,1,99.9131,83.1225)">
            <path d="M0,17.897L-0.144,17.897C-0.163,17.884 -0.181,17.869 -0.202,17.861C-0.751,17.642 -1.323,17.468 -1.846,17.198C-4.111,16.031 -5.615,14.231 -6.276,11.751C-6.31,11.626 -6.282,11.573 -6.173,11.513C-5.365,11.068 -4.561,10.616 -3.756,10.166C-3.706,10.138 -3.657,10.107 -3.607,10.078C-4.067,10.085 -4.52,10.107 -4.969,10.158C-5.427,10.21 -5.883,10.28 -6.336,10.365C-6.638,10.421 -6.686,10.481 -6.667,10.777C-6.644,11.183 -6.62,11.593 -6.539,11.989C-6.306,13.125 -5.902,14.194 -5.244,15.16C-5.174,15.263 -5.147,15.397 -5.101,15.516C-5.128,15.531 -5.155,15.545 -5.183,15.561C-5.974,14.87 -6.61,14.05 -7.114,13.126C-7.807,11.855 -8.16,10.494 -8.207,9.041C-6.704,9.014 -5.23,8.988 -3.757,8.962C-4.221,8.743 -4.687,8.554 -5.147,8.353C-6.064,7.954 -6.982,7.556 -7.824,7.006C-8.03,6.872 -8.223,6.722 -8.318,6.482L-8.318,6.05C-8.273,5.897 -8.233,5.742 -8.183,5.591C-7.907,4.753 -7.472,3.996 -6.985,3.267C-6.645,2.757 -6.284,2.264 -5.778,1.899C-5.714,1.853 -5.647,1.811 -5.582,1.767C-5.565,1.777 -5.549,1.788 -5.534,1.798C-5.547,1.883 -5.546,1.974 -5.578,2.051C-5.687,2.316 -5.793,2.585 -5.928,2.837C-6.399,3.718 -6.747,4.632 -6.769,5.648C-6.771,5.778 -6.732,5.845 -6.626,5.9C-5.901,6.283 -5.187,6.689 -4.449,7.044C-3.962,7.278 -3.441,7.438 -2.935,7.631C-2.927,7.613 -2.918,7.595 -2.911,7.578C-2.953,7.539 -2.994,7.499 -3.038,7.46C-3.547,7.015 -4.065,6.577 -4.565,6.12C-5.044,5.684 -5.504,5.227 -5.86,4.679C-5.95,4.541 -5.994,4.408 -5.911,4.245C-5.832,4.091 -5.785,3.921 -5.707,3.767C-4.952,2.262 -3.746,1.228 -2.255,0.508C-1.822,0.299 -1.353,0.168 -0.9,0L-0.684,0C-0.657,0.106 -0.692,0.176 -0.792,0.23C-0.971,0.328 -1.149,0.428 -1.315,0.544C-2.588,1.434 -3.451,2.64 -4.036,4.063C-4.106,4.234 -4.093,4.356 -3.984,4.502C-3.28,5.453 -2.377,6.16 -1.311,6.655C-1.11,6.748 -0.868,6.749 -0.668,6.788C-0.682,6.552 -0.718,6.356 -0.697,6.168C-0.672,5.943 -0.596,5.726 -0.547,5.504C-0.526,5.406 -0.507,5.306 -0.505,5.206C-0.502,4.957 -0.35,4.776 -0.092,4.734C-0.186,4.937 -0.044,5.323 0.14,5.33C0.486,5.342 0.833,5.335 1.179,5.331C1.215,5.331 1.268,5.31 1.284,5.282C1.385,5.111 1.514,4.945 1.405,4.721C1.712,4.82 1.811,4.964 1.804,5.265C1.803,5.34 1.826,5.418 1.847,5.491C1.957,5.905 2.112,6.315 1.918,6.784C2.137,6.753 2.35,6.769 2.52,6.691C3.583,6.201 4.475,5.493 5.178,4.548C5.312,4.368 5.327,4.223 5.24,4.014C4.579,2.421 3.609,1.092 2.084,0.218C2.026,0.185 2.014,0.074 1.98,0L2.196,0C2.211,0.01 2.224,0.026 2.239,0.03C2.918,0.2 3.551,0.48 4.146,0.845C5.408,1.62 6.402,2.633 7.009,4.007C7.156,4.343 7.156,4.621 6.904,4.89C6.429,5.397 5.968,5.918 5.474,6.406C5.056,6.817 4.601,7.19 4.119,7.619C4.378,7.539 4.59,7.483 4.795,7.409C5.862,7.018 6.852,6.469 7.822,5.883C7.919,5.825 7.928,5.756 7.927,5.662C7.911,4.865 7.715,4.112 7.379,3.392C7.169,2.942 6.963,2.49 6.764,2.036C6.731,1.963 6.739,1.873 6.729,1.791L6.788,1.762C6.952,1.897 7.143,2.009 7.274,2.17C7.626,2.601 7.979,3.035 8.284,3.499C8.749,4.205 9.145,4.952 9.366,5.777C9.551,6.466 9.483,6.709 8.865,7.064C8.123,7.489 7.354,7.868 6.586,8.243C6.062,8.498 5.517,8.71 4.938,8.961C6.429,8.988 7.875,9.015 9.337,9.041C9.276,10.84 8.769,12.475 7.771,13.952C7.372,14.544 6.923,15.098 6.378,15.562C6.352,15.546 6.325,15.531 6.299,15.516C6.343,15.4 6.366,15.272 6.434,15.172C7.103,14.169 7.503,13.06 7.726,11.885C7.802,11.489 7.807,11.078 7.833,10.673C7.845,10.502 7.731,10.415 7.576,10.376C7.512,10.36 7.449,10.34 7.384,10.331C6.844,10.259 6.305,10.183 5.763,10.121C5.46,10.086 5.154,10.076 4.849,10.054C4.847,10.064 4.844,10.074 4.841,10.084C5.723,10.587 6.604,11.091 7.473,11.586C7.479,11.616 7.481,11.622 7.48,11.627C6.851,14.168 5.365,16.039 3.046,17.237C2.534,17.502 1.977,17.679 1.44,17.897L1.296,17.897C1.223,17.756 1.271,17.69 1.418,17.634C1.629,17.553 1.835,17.452 2.028,17.335C2.704,16.929 3.263,16.387 3.777,15.797C4.462,15.013 5.074,14.178 5.499,13.221C5.786,12.575 5.729,12.385 5.172,11.95C4.525,11.446 3.81,11.059 3.084,10.686C3.067,10.677 3.048,10.676 3.007,10.667C3.036,10.747 3.058,10.802 3.075,10.858C3.256,11.434 3.45,12.005 3.613,12.586C3.768,13.138 3.782,13.677 3.421,14.183C2.619,15.304 1.836,16.438 1.04,17.564C1.013,17.602 0.934,17.617 0.878,17.62C0.742,17.626 0.603,17.599 0.471,17.623C0.361,17.644 0.31,17.613 0.249,17.531C-0.097,17.064 -0.461,16.609 -0.795,16.134C-1.305,15.408 -1.796,14.67 -2.292,13.935C-2.434,13.723 -2.496,13.481 -2.448,13.231C-2.359,12.768 -2.271,12.304 -2.146,11.85C-2.037,11.45 -1.878,11.064 -1.72,10.616C-2.266,10.922 -2.776,11.186 -3.26,11.491C-3.619,11.716 -3.948,11.989 -4.28,12.253C-4.443,12.382 -4.5,12.568 -4.432,12.772C-4.362,12.981 -4.299,13.196 -4.2,13.392C-3.618,14.543 -2.832,15.544 -1.9,16.431C-1.355,16.95 -0.768,17.412 -0.04,17.66C0.101,17.708 0.078,17.802 0,17.897" style="fill-rule:nonzero;"/>
        </g>
    </g>
</svg>
