<?xml version="1.0" encoding="UTF-8" standalone="no"?>
<!DOCTYPE svg PUBLIC "-//W3C//DTD SVG 1.1//EN" "http://www.w3.org/Graphics/SVG/1.1/DTD/svg11.dtd">
<svg width="100%" height="100%" viewBox="0 0 200 200" version="1.1" xmlns="http://www.w3.org/2000/svg" xmlns:xlink="http://www.w3.org/1999/xlink" xml:space="preserve" xmlns:serif="http://www.serif.com/" style="fill-rule:evenodd;clip-rule:evenodd;stroke-linejoin:round;stroke-miterlimit:2;">
    <g id="图层-1" serif:id="图层 1">
        <g transform="matrix(1,0,0,1,116.432,51.8999)">
            <path d="M0,3.292C1.84,3.292 3.337,4.79 3.337,6.629C3.337,8.467 1.84,9.919 0,9.919C-1.838,9.919 -3.337,8.467 -3.337,6.629C-3.337,4.79 -1.838,3.292 0,3.292M-33.37,3.292C-31.531,3.292 -30.033,4.79 -30.033,6.629C-30.033,8.467 -31.531,9.919 -33.37,9.919C-35.208,9.919 -36.707,8.467 -36.707,6.629C-36.707,4.79 -35.208,3.292 -33.37,3.292M-39.394,-16.998L-33.37,-6.523C-44.335,-1.144 -51.769,9.389 -51.769,21.471L18.4,21.471C18.4,9.389 10.968,-1.144 0,-6.523L6.025,-16.998C6.025,-16.998 6.312,-17.554 5.771,-17.866C5.229,-18.178 4.867,-17.645 4.867,-17.645L-1.251,-7.078C-5.91,-9.152 -11.146,-10.323 -16.684,-10.323C-22.223,-10.323 -27.46,-9.152 -32.119,-7.078L-38.236,-17.645C-38.236,-17.645 -38.578,-18.179 -39.122,-17.867C-39.667,-17.557 -39.395,-16.998 -39.395,-16.998L-39.394,-16.998Z" style="fill:rgb(189,33,38);fill-rule:nonzero;"/>
        </g>
        <g transform="matrix(1,0,0,1,64.3804,163.28)">
            <path d="M0,-85.824L0,-32.591C0,-29.949 3.192,-26.491 5.833,-26.491L14.183,-26.491L14.183,-8.342C14.183,-3.722 17.548,0 21.737,0C25.927,0 29.292,-3.722 29.292,-8.342L29.292,-26.491L41.435,-26.491L41.435,-8.342C41.435,-3.722 44.801,0 48.99,0C53.178,0 56.59,-3.722 56.59,-8.342L56.59,-26.491L64.893,-26.491C67.535,-26.491 70.727,-29.949 70.727,-32.591L70.727,-85.824L0,-85.824Z" style="fill:rgb(192,33,38);fill-rule:nonzero;"/>
        </g>
        <g transform="matrix(1,0,0,1,52.7407,124.611)">
            <path d="M0,-48.27C4.176,-48.27 7.561,-44.535 7.561,-39.927L7.561,-8.343C7.561,-3.736 4.176,0 0,0C-4.177,0 -7.562,-3.736 -7.562,-8.343L-7.562,-39.927C-7.562,-44.535 -4.177,-48.27 0,-48.27" style="fill:rgb(189,33,38);fill-rule:nonzero;"/>
        </g>
        <g transform="matrix(1,0,0,1,146.755,124.611)">
            <path d="M0,-48.27C4.177,-48.27 7.562,-44.535 7.562,-39.927L7.562,-8.343C7.562,-3.736 4.177,0 0,0C-4.176,0 -7.561,-3.736 -7.561,-8.343L-7.561,-39.927C-7.561,-44.535 -4.176,-48.27 0,-48.27" style="fill:rgb(189,33,38);fill-rule:nonzero;"/>
        </g>
        <g transform="matrix(1,0,0,1,83.8384,68.9087)">
            <path d="M0,-22.543C-10.218,-17.53 -17.144,-7.716 -17.144,3.541L48.239,3.541C48.239,-7.716 41.313,-17.53 31.094,-22.543L29.928,-23.06C25.586,-24.993 20.708,-26.084 15.547,-26.084C10.386,-26.084 5.506,-24.993 1.166,-23.06L0,-22.543Z" style="fill:rgb(247,200,53);fill-rule:nonzero;"/>
        </g>
        <g transform="matrix(-1,0,0,1,83.062,61.8189)">
            <path d="M0,-6.627C-1.839,-6.627 -3.337,-5.129 -3.337,-3.29C-3.337,-1.452 -1.839,0 0,0C1.838,0 3.337,-1.452 3.337,-3.29C3.337,-5.129 1.838,-6.627 0,-6.627" style="fill:white;fill-rule:nonzero;"/>
        </g>
        <g transform="matrix(-1,0,0,1,116.432,61.8189)">
            <path d="M0,-6.627C-1.84,-6.627 -3.337,-5.129 -3.337,-3.29C-3.337,-1.452 -1.84,0 0,0C1.838,0 3.337,-1.452 3.337,-3.29C3.337,-5.129 1.838,-6.627 0,-6.627" style="fill:white;fill-rule:nonzero;"/>
        </g>
        <g transform="matrix(1,0,0,1,104.122,42.0518)">
            <path d="M0,11.601L-7.625,11.601C-8.725,11.601 -9.625,10.701 -9.625,9.601L-9.625,2C-9.625,0.9 -8.725,0 -7.625,0L0,0C1.101,0 2,0.9 2,2L2,9.601C2,10.701 1.101,11.601 0,11.601" style="fill:rgb(189,33,38);fill-rule:nonzero;"/>
        </g>
        <g transform="matrix(1,0,0,1,82.5205,72.1291)">
            <path d="M0,-25.736L3.424,-26.682L-9.035,-17.335C-9.601,-16.919 -9.826,-16.179 -9.586,-15.519L-8.01,-11.159C-7.417,-9.523 -7.511,-7.716 -8.271,-6.15L-9.543,-3.522C-9.817,-2.957 -9.746,-2.286 -9.36,-1.79L-7.523,0.571L-17.668,0.946L-14.79,-11.694L-9.981,-18.476L-1.898,-24.887L0,-25.736Z" style="fill:rgb(189,33,38);fill-rule:nonzero;"/>
        </g>
        <g transform="matrix(1,0,0,1,116.52,72.1291)">
            <path d="M0,-25.736L-3.425,-26.682L9.034,-17.335C9.601,-16.919 9.826,-16.179 9.587,-15.519L8.01,-11.159C7.417,-9.523 7.512,-7.716 8.271,-6.15L9.543,-3.522C9.816,-2.957 9.746,-2.286 9.36,-1.79L7.523,0.571L17.668,0.946L14.789,-11.694L9.981,-18.476L1.898,-24.887L0,-25.736Z" style="fill:rgb(189,33,38);fill-rule:nonzero;"/>
        </g>
        <g transform="matrix(-1,0,0,1,172.311,112.604)">
            <rect x="78.563" y="36.721" width="15.185" height="13.954" style="fill:rgb(192,33,38);"/>
        </g>
        <g transform="matrix(1,0,0,1,99.7441,151.825)">
            <path d="M0,13.748L-27.497,13.748C-27.497,6.155 -21.341,0 -13.749,0C-6.155,0 0,6.155 0,13.748" style="fill:rgb(192,33,38);fill-rule:nonzero;"/>
        </g>
        <g transform="matrix(1,0,0,1,126.844,151.825)">
            <path d="M0,13.748L-27.497,13.748C-27.497,6.155 -21.342,0 -13.749,0C-6.155,0 0,6.155 0,13.748" style="fill:rgb(192,33,38);fill-rule:nonzero;"/>
        </g>
        <g transform="matrix(-1,0,0,1,172.311,89.452)">
            <rect x="78.563" y="48.842" width="15.185" height="12.864" style="fill:rgb(247,200,53);"/>
        </g>
        <g transform="matrix(-1,0,0,1,226.941,89.452)">
            <rect x="105.878" y="48.842" width="15.185" height="12.864" style="fill:rgb(247,200,53);"/>
        </g>
        <g transform="matrix(-1,0,0,1,105.479,2.661)">
            <rect x="45.147" y="90.664" width="15.185" height="16.011" style="fill:rgb(247,200,53);"/>
        </g>
        <g transform="matrix(-1,0,0,1,293.511,2.661)">
            <rect x="139.163" y="90.664" width="15.185" height="16.011" style="fill:rgb(247,200,53);"/>
        </g>
        <g transform="matrix(1,0,0,1,120.366,125.168)">
            <path d="M0,-5.02C-5.079,-6.162 -8.922,-9.01 -20.738,-9.01C-30.501,-9.01 -36.999,-5.901 -42.436,-4.891C-45.636,-4.296 -54.973,-4.248 -55.938,-4.248L-55.938,-0.772C-55.938,-0.772 -44.821,-0.753 -41.471,0.001C-36.392,1.142 -32.55,3.99 -20.733,3.99C-10.971,3.99 -4.474,0.881 0.964,-0.128C4.165,-0.723 13.502,-0.772 14.466,-0.772L14.466,-1.931L14.466,-3.089L14.466,-4.248C14.466,-4.248 3.35,-4.267 0,-5.02" style="fill:rgb(168,31,35);fill-rule:nonzero;"/>
        </g>
        <g transform="matrix(0.944271,0.32917,0.32917,-0.944271,144.47,88.5455)">
            <path d="M3.176,-0.841C4.997,-0.224 6.538,1.025 7.399,2.806C9.216,6.566 7.325,11.239 3.176,13.243L-2.728,16.095L3.176,-0.841Z" style="fill:rgb(189,33,38);fill-rule:nonzero;"/>
        </g>
        <g transform="matrix(1,0,0,1,100.31,77.4557)">
            <path d="M0,5.536L-35.93,0L34.522,0L0,5.536Z" style="fill:rgb(168,31,35);fill-rule:nonzero;"/>
        </g>
        <g transform="matrix(0,-1,-1,0,100.31,88.7945)">
            <path d="M-7.268,-7.268C-11.282,-7.268 -14.536,-4.014 -14.536,0C-14.536,4.014 -11.282,7.268 -7.268,7.268C-3.254,7.268 0,4.014 0,0C0,-4.014 -3.254,-7.268 -7.268,-7.268" style="fill:rgb(157,218,234);fill-rule:nonzero;"/>
        </g>
        <g transform="matrix(0,-1,-1,0,100.31,89.4385)">
            <path d="M-6.624,-6.624C-10.312,-6.624 -13.302,-3.659 -13.302,0C-13.302,3.658 -10.312,6.624 -6.624,6.624C-2.936,6.624 0.054,3.658 0.054,0C0.054,-3.659 -2.936,-6.624 -6.624,-6.624" style="fill:rgb(214,238,244);fill-rule:nonzero;"/>
        </g>
        <g transform="matrix(0.944271,-0.32917,-0.32917,-0.944271,55.4619,88.5455)">
            <path d="M-3.176,-0.841C-4.997,-0.224 -6.539,1.025 -7.4,2.807C-9.216,6.566 -7.325,11.239 -3.176,13.243L2.728,16.095L-3.176,-0.841Z" style="fill:rgb(189,33,38);fill-rule:nonzero;"/>
        </g>
    </g>
</svg>
